<mxfile host="app.diagrams.net" agent="Mozilla/5.0 (Windows NT 10.0; Win64; x64) AppleWebKit/537.36 (KHTML, like Gecko) Chrome/138.0.0.0 Safari/537.36" version="28.0.6">
  <diagram name="PÃ¡gina-1" id="PuR6PXavX1iiZgIphFz7">
    <mxGraphModel grid="1" page="1" gridSize="10" guides="1" tooltips="1" connect="1" arrows="1" fold="1" pageScale="1" pageWidth="827" pageHeight="1169" math="0" shadow="0">
      <root>
        <mxCell id="0" />
        <mxCell id="1" parent="0" />
        <mxCell id="wnuGWgDGQfipznTXfZxU-3" value="" style="shape=partialRectangle;whiteSpace=wrap;html=1;top=0;bottom=0;fillColor=none;rotation=90;" vertex="1" parent="1">
          <mxGeometry x="146.87" y="240" width="65" height="120" as="geometry" />
        </mxCell>
        <mxCell id="wnuGWgDGQfipznTXfZxU-6" value="" style="endArrow=none;html=1;rounded=0;exitX=1;exitY=0;exitDx=0;exitDy=0;" edge="1" parent="1" source="wnuGWgDGQfipznTXfZxU-3">
          <mxGeometry width="50" height="50" relative="1" as="geometry">
            <mxPoint x="283.12" y="306.25" as="sourcePoint" />
            <mxPoint x="273.12" y="296.25" as="targetPoint" />
          </mxGeometry>
        </mxCell>
        <mxCell id="wnuGWgDGQfipznTXfZxU-8" value="" style="endArrow=none;html=1;rounded=0;exitX=0;exitY=0;exitDx=0;exitDy=0;" edge="1" parent="1" source="wnuGWgDGQfipznTXfZxU-3">
          <mxGeometry width="50" height="50" relative="1" as="geometry">
            <mxPoint x="283.12" y="258.25" as="sourcePoint" />
            <mxPoint x="273.12" y="296.25" as="targetPoint" />
          </mxGeometry>
        </mxCell>
        <mxCell id="wnuGWgDGQfipznTXfZxU-11" value="" style="endArrow=none;html=1;rounded=0;entryX=1;entryY=1;entryDx=0;entryDy=0;" edge="1" parent="1" target="wnuGWgDGQfipznTXfZxU-3">
          <mxGeometry width="50" height="50" relative="1" as="geometry">
            <mxPoint x="86.87" y="300" as="sourcePoint" />
            <mxPoint x="110.12" y="328.25" as="targetPoint" />
          </mxGeometry>
        </mxCell>
        <mxCell id="wnuGWgDGQfipznTXfZxU-12" value="" style="endArrow=none;html=1;rounded=0;entryX=0;entryY=1;entryDx=0;entryDy=0;" edge="1" parent="1" target="wnuGWgDGQfipznTXfZxU-3">
          <mxGeometry width="50" height="50" relative="1" as="geometry">
            <mxPoint x="86.87" y="300" as="sourcePoint" />
            <mxPoint x="110.12" y="270" as="targetPoint" />
          </mxGeometry>
        </mxCell>
        <mxCell id="CxLbgmbTkm528DCZqjS9-22" style="edgeStyle=orthogonalEdgeStyle;rounded=0;orthogonalLoop=1;jettySize=auto;html=1;entryX=1;entryY=0.5;entryDx=0;entryDy=0;" edge="1" parent="1" target="CxLbgmbTkm528DCZqjS9-3">
          <mxGeometry relative="1" as="geometry">
            <mxPoint x="470" y="310" as="sourcePoint" />
            <mxPoint x="179.3699999999999" y="552.5" as="targetPoint" />
            <Array as="points">
              <mxPoint x="510" y="310" />
              <mxPoint x="510" y="570" />
              <mxPoint x="179" y="570" />
            </Array>
          </mxGeometry>
        </mxCell>
        <mxCell id="wnuGWgDGQfipznTXfZxU-13" value="" style="shape=partialRectangle;whiteSpace=wrap;html=1;top=0;bottom=0;fillColor=none;rotation=90;" vertex="1" parent="1">
          <mxGeometry x="356.87" y="240" width="65" height="120" as="geometry" />
        </mxCell>
        <mxCell id="wnuGWgDGQfipznTXfZxU-14" value="" style="endArrow=none;html=1;rounded=0;exitX=1;exitY=0;exitDx=0;exitDy=0;" edge="1" parent="1" source="wnuGWgDGQfipznTXfZxU-13">
          <mxGeometry width="50" height="50" relative="1" as="geometry">
            <mxPoint x="493.12" y="306.25" as="sourcePoint" />
            <mxPoint x="483.12" y="296.25" as="targetPoint" />
          </mxGeometry>
        </mxCell>
        <mxCell id="wnuGWgDGQfipznTXfZxU-15" value="" style="endArrow=none;html=1;rounded=0;exitX=0;exitY=0;exitDx=0;exitDy=0;" edge="1" parent="1" source="wnuGWgDGQfipznTXfZxU-13">
          <mxGeometry width="50" height="50" relative="1" as="geometry">
            <mxPoint x="493.12" y="258.25" as="sourcePoint" />
            <mxPoint x="483.12" y="296.25" as="targetPoint" />
          </mxGeometry>
        </mxCell>
        <mxCell id="wnuGWgDGQfipznTXfZxU-16" value="" style="endArrow=none;html=1;rounded=0;entryX=1;entryY=1;entryDx=0;entryDy=0;" edge="1" parent="1" target="wnuGWgDGQfipznTXfZxU-13">
          <mxGeometry width="50" height="50" relative="1" as="geometry">
            <mxPoint x="296.87" y="300" as="sourcePoint" />
            <mxPoint x="320.12" y="328.25" as="targetPoint" />
          </mxGeometry>
        </mxCell>
        <mxCell id="wnuGWgDGQfipznTXfZxU-17" value="" style="endArrow=none;html=1;rounded=0;entryX=0;entryY=1;entryDx=0;entryDy=0;" edge="1" parent="1" target="wnuGWgDGQfipznTXfZxU-13">
          <mxGeometry width="50" height="50" relative="1" as="geometry">
            <mxPoint x="296.87" y="300" as="sourcePoint" />
            <mxPoint x="320.12" y="270" as="targetPoint" />
          </mxGeometry>
        </mxCell>
        <mxCell id="wnuGWgDGQfipznTXfZxU-23" value="&lt;font style=&quot;vertical-align: inherit;&quot;&gt;&lt;font style=&quot;vertical-align: inherit;&quot;&gt;Idle&lt;/font&gt;&lt;/font&gt;" style="text;html=1;align=center;verticalAlign=middle;whiteSpace=wrap;rounded=0;" vertex="1" parent="1">
          <mxGeometry x="16.87" y="285" width="60" height="30" as="geometry" />
        </mxCell>
        <mxCell id="CxLbgmbTkm528DCZqjS9-2" style="edgeStyle=orthogonalEdgeStyle;rounded=0;orthogonalLoop=1;jettySize=auto;html=1;exitX=1;exitY=0.5;exitDx=0;exitDy=0;" edge="1" parent="1" source="wnuGWgDGQfipznTXfZxU-13">
          <mxGeometry relative="1" as="geometry">
            <mxPoint x="260" y="410" as="targetPoint" />
            <Array as="points">
              <mxPoint x="389" y="410" />
            </Array>
          </mxGeometry>
        </mxCell>
        <mxCell id="wnuGWgDGQfipznTXfZxU-24" value="" style="shape=partialRectangle;whiteSpace=wrap;html=1;top=0;bottom=0;fillColor=none;rotation=90;" vertex="1" parent="1">
          <mxGeometry x="571.25" y="237.5" width="65" height="122.5" as="geometry" />
        </mxCell>
        <mxCell id="wnuGWgDGQfipznTXfZxU-25" value="" style="endArrow=none;html=1;rounded=0;exitX=1;exitY=0;exitDx=0;exitDy=0;" edge="1" parent="1" source="wnuGWgDGQfipznTXfZxU-24">
          <mxGeometry width="50" height="50" relative="1" as="geometry">
            <mxPoint x="706.25" y="305" as="sourcePoint" />
            <mxPoint x="696.25" y="295" as="targetPoint" />
          </mxGeometry>
        </mxCell>
        <mxCell id="wnuGWgDGQfipznTXfZxU-26" value="" style="endArrow=none;html=1;rounded=0;exitX=0;exitY=0;exitDx=0;exitDy=0;" edge="1" parent="1" source="wnuGWgDGQfipznTXfZxU-24">
          <mxGeometry width="50" height="50" relative="1" as="geometry">
            <mxPoint x="706.25" y="257" as="sourcePoint" />
            <mxPoint x="696.25" y="295" as="targetPoint" />
          </mxGeometry>
        </mxCell>
        <mxCell id="wnuGWgDGQfipznTXfZxU-27" value="" style="endArrow=none;html=1;rounded=0;entryX=1;entryY=1;entryDx=0;entryDy=0;" edge="1" parent="1" target="wnuGWgDGQfipznTXfZxU-24">
          <mxGeometry width="50" height="50" relative="1" as="geometry">
            <mxPoint x="510" y="298.75" as="sourcePoint" />
            <mxPoint x="533.25" y="327" as="targetPoint" />
          </mxGeometry>
        </mxCell>
        <mxCell id="wnuGWgDGQfipznTXfZxU-28" value="" style="endArrow=none;html=1;rounded=0;entryX=0;entryY=1;entryDx=0;entryDy=0;" edge="1" parent="1" target="wnuGWgDGQfipznTXfZxU-24">
          <mxGeometry width="50" height="50" relative="1" as="geometry">
            <mxPoint x="510" y="298.75" as="sourcePoint" />
            <mxPoint x="533.25" y="268.75" as="targetPoint" />
          </mxGeometry>
        </mxCell>
        <mxCell id="wnuGWgDGQfipznTXfZxU-39" value="&lt;font style=&quot;vertical-align: inherit;&quot;&gt;&lt;font style=&quot;vertical-align: inherit;&quot;&gt;Idle&lt;/font&gt;&lt;/font&gt;" style="text;html=1;align=center;verticalAlign=middle;whiteSpace=wrap;rounded=0;" vertex="1" parent="1">
          <mxGeometry x="10" y="393.76" width="60" height="30" as="geometry" />
        </mxCell>
        <mxCell id="wnuGWgDGQfipznTXfZxU-58" value="" style="endArrow=classic;html=1;rounded=0;" edge="1" parent="1">
          <mxGeometry width="50" height="50" relative="1" as="geometry">
            <mxPoint x="266.87" y="299.40999999999997" as="sourcePoint" />
            <mxPoint x="296.87" y="299.82000000000005" as="targetPoint" />
          </mxGeometry>
        </mxCell>
        <mxCell id="wnuGWgDGQfipznTXfZxU-63" value="" style="endArrow=classic;html=1;rounded=0;" edge="1" parent="1">
          <mxGeometry width="50" height="50" relative="1" as="geometry">
            <mxPoint x="480" y="298.15999999999997" as="sourcePoint" />
            <mxPoint x="510" y="298.57000000000005" as="targetPoint" />
          </mxGeometry>
        </mxCell>
        <mxCell id="wnuGWgDGQfipznTXfZxU-64" value="" style="endArrow=classic;html=1;rounded=0;" edge="1" parent="1">
          <mxGeometry width="50" height="50" relative="1" as="geometry">
            <mxPoint x="56.87" y="299.40999999999997" as="sourcePoint" />
            <mxPoint x="86.87" y="299.82000000000005" as="targetPoint" />
          </mxGeometry>
        </mxCell>
        <mxCell id="wnuGWgDGQfipznTXfZxU-65" value="&lt;font style=&quot;vertical-align: inherit;&quot;&gt;&lt;font style=&quot;vertical-align: inherit;&quot;&gt;Contrato&lt;/font&gt;&lt;/font&gt;" style="shape=umlFrame;whiteSpace=wrap;html=1;pointerEvents=0;" vertex="1" parent="1">
          <mxGeometry x="-170" y="180" width="910" height="420" as="geometry" />
        </mxCell>
        <mxCell id="wnuGWgDGQfipznTXfZxU-66" value="&lt;span style=&quot;text-align: left;&quot;&gt;&lt;font style=&quot;vertical-align: inherit;&quot;&gt;&lt;font style=&quot;vertical-align: inherit;&quot;&gt;Cargar Contrato&lt;/font&gt;&lt;/font&gt;&lt;/span&gt;" style="text;html=1;align=center;verticalAlign=middle;whiteSpace=wrap;rounded=0;" vertex="1" parent="1">
          <mxGeometry x="149.37" y="285" width="60" height="30" as="geometry" />
        </mxCell>
        <mxCell id="wnuGWgDGQfipznTXfZxU-67" value="&lt;div style=&quot;text-align: left;&quot;&gt;&lt;span style=&quot;background-color: transparent; color: light-dark(rgb(0, 0, 0), rgb(255, 255, 255));&quot;&gt;Contrato Enviado&lt;/span&gt;&lt;/div&gt;" style="text;html=1;align=center;verticalAlign=middle;whiteSpace=wrap;rounded=0;" vertex="1" parent="1">
          <mxGeometry x="361.87" y="285" width="58.13" height="30" as="geometry" />
        </mxCell>
        <mxCell id="wnuGWgDGQfipznTXfZxU-69" value="&lt;div style=&quot;text-align: left;&quot;&gt;&lt;span style=&quot;background-color: transparent; color: light-dark(rgb(0, 0, 0), rgb(255, 255, 255));&quot;&gt;Descargar Contrato&lt;/span&gt;&lt;/div&gt;" style="text;html=1;align=center;verticalAlign=middle;whiteSpace=wrap;rounded=0;" vertex="1" parent="1">
          <mxGeometry x="572.5" y="283.75" width="60" height="30" as="geometry" />
        </mxCell>
        <mxCell id="wnuGWgDGQfipznTXfZxU-82" value="{2d = 3d}" style="text;whiteSpace=wrap;" vertex="1" parent="1">
          <mxGeometry x="136.88" y="345.01" width="80" height="40" as="geometry" />
        </mxCell>
        <mxCell id="wnuGWgDGQfipznTXfZxU-83" value="{0 = 1d}" style="text;whiteSpace=wrap;" vertex="1" parent="1">
          <mxGeometry x="146.87" y="230" width="80" height="40" as="geometry" />
        </mxCell>
        <mxCell id="wnuGWgDGQfipznTXfZxU-84" value="&lt;span style=&quot;color: rgb(0, 0, 0); font-family: Helvetica; font-size: 12px; font-style: normal; font-variant-ligatures: normal; font-variant-caps: normal; font-weight: 400; letter-spacing: normal; orphans: 2; text-align: left; text-indent: 0px; text-transform: none; widows: 2; word-spacing: 0px; -webkit-text-stroke-width: 0px; white-space: normal; background-color: rgb(236, 236, 236); text-decoration-thickness: initial; text-decoration-style: initial; text-decoration-color: initial; float: none; display: inline !important;&quot;&gt;&lt;font style=&quot;vertical-align: inherit;&quot;&gt;&lt;font style=&quot;vertical-align: inherit;&quot;&gt;{1d = 2d}&lt;/font&gt;&lt;/font&gt;&lt;/span&gt;" style="text;whiteSpace=wrap;html=1;" vertex="1" parent="1">
          <mxGeometry x="349.37" y="230" width="80" height="40" as="geometry" />
        </mxCell>
        <mxCell id="wnuGWgDGQfipznTXfZxU-85" value="&lt;font style=&quot;vertical-align: inherit;&quot;&gt;&lt;font style=&quot;vertical-align: inherit;&quot;&gt;Usuario&lt;/font&gt;&lt;/font&gt;" style="text;html=1;align=center;verticalAlign=middle;whiteSpace=wrap;rounded=0;" vertex="1" parent="1">
          <mxGeometry x="-70" y="283.75" width="60" height="30" as="geometry" />
        </mxCell>
        <mxCell id="wnuGWgDGQfipznTXfZxU-87" value="" style="shape=partialRectangle;whiteSpace=wrap;html=1;top=0;bottom=0;fillColor=none;rotation=90;" vertex="1" parent="1">
          <mxGeometry x="136.88" y="348.76" width="65" height="120" as="geometry" />
        </mxCell>
        <mxCell id="wnuGWgDGQfipznTXfZxU-88" value="" style="endArrow=none;html=1;rounded=0;exitX=1;exitY=0;exitDx=0;exitDy=0;" edge="1" parent="1" source="wnuGWgDGQfipznTXfZxU-87">
          <mxGeometry width="50" height="50" relative="1" as="geometry">
            <mxPoint x="273.13" y="415.01" as="sourcePoint" />
            <mxPoint x="263.13" y="405.01" as="targetPoint" />
          </mxGeometry>
        </mxCell>
        <mxCell id="wnuGWgDGQfipznTXfZxU-89" value="" style="endArrow=none;html=1;rounded=0;exitX=0;exitY=0;exitDx=0;exitDy=0;" edge="1" parent="1" source="wnuGWgDGQfipznTXfZxU-87">
          <mxGeometry width="50" height="50" relative="1" as="geometry">
            <mxPoint x="273.13" y="367.01" as="sourcePoint" />
            <mxPoint x="263.13" y="405.01" as="targetPoint" />
          </mxGeometry>
        </mxCell>
        <mxCell id="wnuGWgDGQfipznTXfZxU-90" value="" style="endArrow=none;html=1;rounded=0;entryX=1;entryY=1;entryDx=0;entryDy=0;" edge="1" parent="1" target="wnuGWgDGQfipznTXfZxU-87">
          <mxGeometry width="50" height="50" relative="1" as="geometry">
            <mxPoint x="76.88" y="408.76" as="sourcePoint" />
            <mxPoint x="100.13" y="437.01" as="targetPoint" />
          </mxGeometry>
        </mxCell>
        <mxCell id="wnuGWgDGQfipznTXfZxU-91" value="" style="endArrow=none;html=1;rounded=0;entryX=0;entryY=1;entryDx=0;entryDy=0;" edge="1" parent="1" target="wnuGWgDGQfipznTXfZxU-87">
          <mxGeometry width="50" height="50" relative="1" as="geometry">
            <mxPoint x="76.88" y="408.76" as="sourcePoint" />
            <mxPoint x="100.13" y="378.76" as="targetPoint" />
          </mxGeometry>
        </mxCell>
        <mxCell id="wnuGWgDGQfipznTXfZxU-92" value="&lt;div style=&quot;text-align: left;&quot;&gt;&lt;span style=&quot;background-color: transparent; color: light-dark(rgb(0, 0, 0), rgb(255, 255, 255));&quot;&gt;&lt;font style=&quot;vertical-align: inherit;&quot;&gt;&lt;font style=&quot;vertical-align: inherit;&quot;&gt;&lt;font style=&quot;vertical-align: inherit;&quot;&gt;&lt;font style=&quot;vertical-align: inherit;&quot;&gt;Eliminado&lt;/font&gt;&lt;/font&gt;&lt;/font&gt;&lt;/font&gt;&lt;/span&gt;&lt;/div&gt;" style="text;html=1;align=center;verticalAlign=middle;whiteSpace=wrap;rounded=0;" vertex="1" parent="1">
          <mxGeometry x="116.88" y="393.76" width="85" height="30" as="geometry" />
        </mxCell>
        <mxCell id="wnuGWgDGQfipznTXfZxU-97" value="" style="endArrow=classic;html=1;rounded=0;" edge="1" parent="1">
          <mxGeometry width="50" height="50" relative="1" as="geometry">
            <mxPoint x="50" y="406.28999999999996" as="sourcePoint" />
            <mxPoint x="80" y="406.70000000000005" as="targetPoint" />
          </mxGeometry>
        </mxCell>
        <mxCell id="CxLbgmbTkm528DCZqjS9-1" value="&lt;font style=&quot;vertical-align: inherit;&quot;&gt;&lt;font style=&quot;vertical-align: inherit;&quot;&gt;Administrador&lt;/font&gt;&lt;/font&gt;" style="text;html=1;align=center;verticalAlign=middle;whiteSpace=wrap;rounded=0;" vertex="1" parent="1">
          <mxGeometry x="-90" y="391.88" width="100" height="30" as="geometry" />
        </mxCell>
        <mxCell id="CxLbgmbTkm528DCZqjS9-3" value="" style="shape=partialRectangle;whiteSpace=wrap;html=1;top=0;bottom=0;fillColor=none;rotation=90;" vertex="1" parent="1">
          <mxGeometry x="146.87" y="450" width="65" height="120" as="geometry" />
        </mxCell>
        <mxCell id="CxLbgmbTkm528DCZqjS9-4" value="" style="endArrow=none;html=1;rounded=0;exitX=1;exitY=0;exitDx=0;exitDy=0;" edge="1" parent="1" source="CxLbgmbTkm528DCZqjS9-3">
          <mxGeometry width="50" height="50" relative="1" as="geometry">
            <mxPoint x="283.12" y="516.25" as="sourcePoint" />
            <mxPoint x="273.12" y="506.25" as="targetPoint" />
          </mxGeometry>
        </mxCell>
        <mxCell id="CxLbgmbTkm528DCZqjS9-5" value="" style="endArrow=none;html=1;rounded=0;exitX=0;exitY=0;exitDx=0;exitDy=0;" edge="1" parent="1" source="CxLbgmbTkm528DCZqjS9-3">
          <mxGeometry width="50" height="50" relative="1" as="geometry">
            <mxPoint x="283.12" y="468.25" as="sourcePoint" />
            <mxPoint x="273.12" y="506.25" as="targetPoint" />
          </mxGeometry>
        </mxCell>
        <mxCell id="CxLbgmbTkm528DCZqjS9-6" value="" style="endArrow=none;html=1;rounded=0;entryX=1;entryY=1;entryDx=0;entryDy=0;" edge="1" parent="1" target="CxLbgmbTkm528DCZqjS9-3">
          <mxGeometry width="50" height="50" relative="1" as="geometry">
            <mxPoint x="86.87" y="510" as="sourcePoint" />
            <mxPoint x="110.12" y="538.25" as="targetPoint" />
          </mxGeometry>
        </mxCell>
        <mxCell id="CxLbgmbTkm528DCZqjS9-7" value="" style="endArrow=none;html=1;rounded=0;entryX=0;entryY=1;entryDx=0;entryDy=0;" edge="1" parent="1" target="CxLbgmbTkm528DCZqjS9-3">
          <mxGeometry width="50" height="50" relative="1" as="geometry">
            <mxPoint x="86.87" y="510" as="sourcePoint" />
            <mxPoint x="110.12" y="480" as="targetPoint" />
          </mxGeometry>
        </mxCell>
        <mxCell id="CxLbgmbTkm528DCZqjS9-8" value="" style="shape=partialRectangle;whiteSpace=wrap;html=1;top=0;bottom=0;fillColor=none;rotation=90;" vertex="1" parent="1">
          <mxGeometry x="356.87" y="450" width="65" height="120" as="geometry" />
        </mxCell>
        <mxCell id="CxLbgmbTkm528DCZqjS9-9" value="" style="endArrow=none;html=1;rounded=0;exitX=1;exitY=0;exitDx=0;exitDy=0;" edge="1" parent="1" source="CxLbgmbTkm528DCZqjS9-8">
          <mxGeometry width="50" height="50" relative="1" as="geometry">
            <mxPoint x="493.1199999999999" y="516.25" as="sourcePoint" />
            <mxPoint x="483.1199999999999" y="506.25" as="targetPoint" />
          </mxGeometry>
        </mxCell>
        <mxCell id="CxLbgmbTkm528DCZqjS9-10" value="" style="endArrow=none;html=1;rounded=0;exitX=0;exitY=0;exitDx=0;exitDy=0;" edge="1" parent="1" source="CxLbgmbTkm528DCZqjS9-8">
          <mxGeometry width="50" height="50" relative="1" as="geometry">
            <mxPoint x="493.1199999999999" y="468.25" as="sourcePoint" />
            <mxPoint x="483.1199999999999" y="506.25" as="targetPoint" />
          </mxGeometry>
        </mxCell>
        <mxCell id="CxLbgmbTkm528DCZqjS9-11" value="" style="endArrow=none;html=1;rounded=0;entryX=1;entryY=1;entryDx=0;entryDy=0;" edge="1" parent="1" target="CxLbgmbTkm528DCZqjS9-8">
          <mxGeometry width="50" height="50" relative="1" as="geometry">
            <mxPoint x="296.87" y="510" as="sourcePoint" />
            <mxPoint x="320.12" y="538.25" as="targetPoint" />
          </mxGeometry>
        </mxCell>
        <mxCell id="CxLbgmbTkm528DCZqjS9-12" value="" style="endArrow=none;html=1;rounded=0;entryX=0;entryY=1;entryDx=0;entryDy=0;" edge="1" parent="1" target="CxLbgmbTkm528DCZqjS9-8">
          <mxGeometry width="50" height="50" relative="1" as="geometry">
            <mxPoint x="296.87" y="510" as="sourcePoint" />
            <mxPoint x="320.12" y="480" as="targetPoint" />
          </mxGeometry>
        </mxCell>
        <mxCell id="CxLbgmbTkm528DCZqjS9-13" value="&lt;font style=&quot;vertical-align: inherit;&quot;&gt;&lt;font style=&quot;vertical-align: inherit;&quot;&gt;Idle&lt;/font&gt;&lt;/font&gt;" style="text;html=1;align=center;verticalAlign=middle;whiteSpace=wrap;rounded=0;" vertex="1" parent="1">
          <mxGeometry x="16.870000000000005" y="495" width="60" height="30" as="geometry" />
        </mxCell>
        <mxCell id="CxLbgmbTkm528DCZqjS9-14" value="" style="endArrow=classic;html=1;rounded=0;" edge="1" parent="1">
          <mxGeometry width="50" height="50" relative="1" as="geometry">
            <mxPoint x="266.87" y="509.40999999999997" as="sourcePoint" />
            <mxPoint x="296.87" y="509.82000000000005" as="targetPoint" />
          </mxGeometry>
        </mxCell>
        <mxCell id="CxLbgmbTkm528DCZqjS9-16" value="" style="endArrow=classic;html=1;rounded=0;" edge="1" parent="1">
          <mxGeometry width="50" height="50" relative="1" as="geometry">
            <mxPoint x="56.870000000000005" y="509.40999999999997" as="sourcePoint" />
            <mxPoint x="86.87" y="509.82000000000005" as="targetPoint" />
          </mxGeometry>
        </mxCell>
        <mxCell id="CxLbgmbTkm528DCZqjS9-17" value="&lt;span style=&quot;text-align: left;&quot;&gt;&lt;font style=&quot;vertical-align: inherit;&quot;&gt;&lt;font style=&quot;vertical-align: inherit;&quot;&gt;Generar ID Contrato&lt;/font&gt;&lt;/font&gt;&lt;/span&gt;" style="text;html=1;align=center;verticalAlign=middle;whiteSpace=wrap;rounded=0;" vertex="1" parent="1">
          <mxGeometry x="149.37" y="495" width="60" height="30" as="geometry" />
        </mxCell>
        <mxCell id="CxLbgmbTkm528DCZqjS9-18" value="&lt;div style=&quot;text-align: left;&quot;&gt;Guardar Archivo&lt;/div&gt;" style="text;html=1;align=center;verticalAlign=middle;whiteSpace=wrap;rounded=0;" vertex="1" parent="1">
          <mxGeometry x="361.87" y="495" width="58.13" height="30" as="geometry" />
        </mxCell>
        <mxCell id="CxLbgmbTkm528DCZqjS9-21" value="&lt;font style=&quot;vertical-align: inherit;&quot;&gt;&lt;font style=&quot;vertical-align: inherit;&quot;&gt;Sistema&lt;/font&gt;&lt;/font&gt;" style="text;html=1;align=center;verticalAlign=middle;whiteSpace=wrap;rounded=0;" vertex="1" parent="1">
          <mxGeometry x="-70" y="493.75" width="60" height="30" as="geometry" />
        </mxCell>
      </root>
    </mxGraphModel>
  </diagram>
</mxfile>
